# xmcd CD database file
#
# Track frame offsets:
#	182
#	12717
#	26317
#	37022
#	48805
#	61027
#	73050
#	85140
#	96530
#	109370
#	120132
#	132177
#	144972
#	156425
#	170632
#	183245
#
# Disc length: 2603 seconds
#
# Revision: 2
# Processed by: cddbd v1.5.2PL0 Copyright (c) Steve Scherf et al.
# Submitted via: CDex 1.70beta2
#
DISCID=d60a2910
DTITLE=Roy Rogers - Roy Rogers (The Country Music Hall Of Fame)
DYEAR=1992
DGENRE=Country
TTITLE0=I'm An Old Cowhand (From The Rio Grande)
TTITLE1=Moonlight On The Praire
TTITLE2=You Waited Too Long
TTITLE3=Chapel In The Valley
TTITLE4=Melody Of The Plains
TTITLE5=New Worried Mind
TTITLE6=Yesterday
TTITLE7=Time Changes Everything
TTITLE8=Don't Be Blue, Little Pal , Don't Be Blue
TTITLE9=I'm Trusting In You
TTITLE10=A Gay Ranchero
TTITLE11=Blue Bonnet Lane
TTITLE12=Don't Waste Your Love On Me
TTITLE13=A Man And His Song
TTITLE14=She Gave Her Heart To A Soldier Boy
TTITLE15=I've Sold My Saddle For An Old Guitar
EXTD=YEAR: 1992
EXTT0=
EXTT1=
EXTT2=
EXTT3=
EXTT4=
EXTT5=
EXTT6=
EXTT7=
EXTT8=
EXTT9=
EXTT10=
EXTT11=
EXTT12=
EXTT13=
EXTT14=
EXTT15=
PLAYORDER=
